<svg width="24" height="24" viewBox="0 0 24 24" fill="none" xmlns="http://www.w3.org/2000/svg">
<g clip-path="url(#clip0_110_487)">
<path fill-rule="evenodd" clip-rule="evenodd" d="M20.2629 15.4825L16.0182 16.7253C16.077 17.4082 15.7352 18.0551 15.1399 18.3988C14.7532 18.622 14.2834 18.7007 13.8212 18.5824L9.72827 17.4859C9.55342 17.4391 9.44955 17.2595 9.49628 17.0847C9.54302 16.9098 9.72264 16.806 9.89749 16.8527L13.971 17.9442C14.5619 18.1026 15.1732 17.7502 15.3316 17.1592C15.4711 16.5549 15.1549 15.9614 14.5464 15.7984L11.4813 14.9771C11.4445 14.9673 11.409 14.9505 11.3762 14.9271C10.3965 14.2324 9.67075 13.9807 9.00621 13.9978C8.33725 14.015 7.68794 14.3073 6.8921 14.6964C6.15424 15.0572 5.43621 15.4005 4.72582 15.7371L6.62453 20.2963L7.35489 19.9412C7.89068 19.6807 8.44019 19.6346 9.01216 19.8007L12.3927 20.7822C13.2852 21.0413 14.4495 20.5883 15.3731 20.2289L21.9238 17.7039C22.5636 17.4574 23.088 16.61 22.8779 15.9288C22.5729 14.9394 20.9601 15.2784 20.2629 15.4825ZM6.08857 22.5222L4.46332 23.1971C4.11068 23.3435 3.70371 23.1756 3.55694 22.8231C2.63955 20.6203 1.72216 18.4174 0.804768 16.2146C0.656409 15.8583 0.822722 15.4552 1.17911 15.3073L2.80436 14.6324C3.157 14.486 3.56397 14.6539 3.71074 15.0064C4.62808 17.2092 5.54552 19.4121 6.46286 21.615C6.61122 21.9711 6.44496 22.3742 6.08857 22.5222ZM18.0756 2.38519C18.0756 3.28842 18.8078 4.02061 19.7111 4.02061C20.6143 4.02061 21.3465 3.28842 21.3465 2.38519C21.3465 1.48219 20.6143 0.75 19.7111 0.75C18.8078 0.75 18.0756 1.48219 18.0756 2.38519ZM13.6454 3.60989C13.6454 4.51317 14.3776 5.24531 15.2808 5.24531C16.1841 5.24531 16.9163 4.51317 16.9163 3.60989C16.9163 2.70689 16.1841 1.9747 15.2808 1.9747C14.3776 1.9747 13.6454 2.70689 13.6454 3.60989ZM18.8193 9.72614C18.8193 11.6803 11.7423 11.6803 11.7423 9.72614C11.7423 7.77202 13.3267 6.18778 15.2809 6.18778C17.2351 6.18778 18.8193 7.77202 18.8193 9.72614ZM9.21522 2.38519C9.21522 3.28842 9.94741 4.02061 10.8506 4.02061C11.7539 4.02061 12.4861 3.28842 12.4861 2.38519C12.4861 1.48219 11.7539 0.75 10.8506 0.75C9.94741 0.75 9.21522 1.48219 9.21522 2.38519ZM23.2495 8.50144C23.2495 6.54727 21.6653 4.96308 19.7111 4.96308C18.7338 4.96308 17.8489 5.35936 17.2085 5.99991C18.5552 6.69806 19.4755 8.10473 19.4755 9.72614C19.4755 9.80822 19.469 9.88725 19.4568 9.96338C21.3065 10.0125 23.2495 9.52542 23.2495 8.50144ZM11.1048 9.96338C11.0925 9.8873 11.0861 9.80827 11.0861 9.72614C11.0861 8.10473 12.0065 6.69811 13.3532 5.99995C12.7128 5.35936 11.828 4.96308 10.8507 4.96308C8.89652 4.96308 7.3121 6.54731 7.3121 8.50144C7.31205 9.52542 9.25497 10.0125 11.1048 9.96338Z" fill="#FFBEE4"/>
</g>
<defs>
<clipPath id="clip0_110_487">
<rect width="24" height="24" fill="white"/>
</clipPath>
</defs>
</svg>
